{
    "asset": {
        "generator": "COLLADA2GLTF",
        "version": "2.0"
    },
    "scenes": [
        {
            "nodes": [
                0
            ]
        }
    ],
    "scene": 0,
    "nodes": [
        {
            "children": [
                3,
                2,
                1
            ],
            "matrix": [
                1.0,
                0.0,
                0.0,
                0.0,
                0.0,
                0.0,
                -1.0,
                0.0,
                0.0,
                1.0,
                0.0,
                0.0,
                0.0,
                0.0,
                0.0,
                1.0
            ],
            "name": "Z_UP"
        },
        {
            "mesh": 0,
            "matrix": [
                1.0,
                0.0,
                0.0,
                0.0,
                0.0,
                1.0,
                0.0,
                0.0,
                0.0,
                0.0,
                0.6075035929679871,
                0.0,
                0.0,
                0.0000018335799722990489,
                -41.94733047485352,
                1.0
            ],
            "name": "Cylinder001"
        },
        {
            "mesh": 1,
            "matrix": [
                1.0,
                0.0,
                0.0,
                0.0,
                0.0,
                1.0,
                0.0,
                0.0,
                0.0,
                0.0,
                1.0,
                0.0,
                0.0,
                0.0,
                52.81600189208985,
                1.0
            ],
            "name": "Sphere002"
        },
        {
            "mesh": 2,
            "matrix": [
                0.4862934947013855,
                0.0,
                0.0,
                0.0,
                0.0,
                0.45912811160087588,
                0.0,
                0.0,
                0.0,
                0.0,
                1.0,
                0.0,
                0.0,
                0.0,
                0.0,
                1.0
            ],
            "name": "Sphere001"
        }
    ],
    "meshes": [
        {
            "primitives": [
                {
                    "attributes": {
                        "NORMAL": 1,
                        "POSITION": 2
                    },
                    "indices": 0,
                    "mode": 4,
                    "material": 0
                }
            ],
            "name": "Cylinder001"
        },
        {
            "primitives": [
                {
                    "attributes": {
                        "NORMAL": 4,
                        "POSITION": 5
                    },
                    "indices": 3,
                    "mode": 4,
                    "material": 1
                }
            ],
            "name": "Sphere002"
        },
        {
            "primitives": [
                {
                    "attributes": {
                        "NORMAL": 7,
                        "POSITION": 8
                    },
                    "indices": 6,
                    "mode": 4,
                    "material": 2
                }
            ],
            "name": "Sphere001"
        }
    ],
    "accessors": [
        {
            "bufferView": 0,
            "byteOffset": 0,
            "componentType": 5123,
            "count": 264,
            "max": [
                94
            ],
            "min": [
                0
            ],
            "type": "SCALAR"
        },
        {
            "bufferView": 1,
            "byteOffset": 0,
            "componentType": 5126,
            "count": 95,
            "max": [
                1.0,
                0.989821434020996,
                1.0
            ],
            "min": [
                -0.9999999403953552,
                -0.9898216128349304,
                -1.0
            ],
            "type": "VEC3"
        },
        {
            "bufferView": 1,
            "byteOffset": 1140,
            "componentType": 5126,
            "count": 95,
            "max": [
                27.10876846313477,
                26.832839965820314,
                9.88337516784668
            ],
            "min": [
                -27.10876846313477,
                -26.83284950256348,
                0.0
            ],
            "type": "VEC3"
        },
        {
            "bufferView": 0,
            "byteOffset": 528,
            "componentType": 5123,
            "count": 1080,
            "max": [
                219
            ],
            "min": [
                0
            ],
            "type": "SCALAR"
        },
        {
            "bufferView": 1,
            "byteOffset": 2280,
            "componentType": 5126,
            "count": 220,
            "max": [
                1.0,
                1.0,
                0.9999999403953552
            ],
            "min": [
                -1.0,
                -1.0,
                -1.0
            ],
            "type": "VEC3"
        },
        {
            "bufferView": 1,
            "byteOffset": 4920,
            "componentType": 5126,
            "count": 220,
            "max": [
                15.621719360351565,
                15.621719360351565,
                15.621719360351565
            ],
            "min": [
                -15.621719360351565,
                -15.621719360351565,
                -15.621719360351565
            ],
            "type": "VEC3"
        },
        {
            "bufferView": 0,
            "byteOffset": 2688,
            "componentType": 5123,
            "count": 1080,
            "max": [
                219
            ],
            "min": [
                0
            ],
            "type": "SCALAR"
        },
        {
            "bufferView": 1,
            "byteOffset": 7560,
            "componentType": 5126,
            "count": 220,
            "max": [
                1.0,
                1.0,
                1.0
            ],
            "min": [
                -1.0,
                -1.0,
                -1.0
            ],
            "type": "VEC3"
        },
        {
            "bufferView": 1,
            "byteOffset": 10200,
            "componentType": 5126,
            "count": 220,
            "max": [
                39.84260940551758,
                39.84260940551758,
                39.84260940551758
            ],
            "min": [
                -39.84260940551758,
                -39.84260940551758,
                -39.84260940551758
            ],
            "type": "VEC3"
        }
    ],
    "materials": [
        {
            "pbrMetallicRoughness": {
                "baseColorFactor": [
                    0.6196079254150391,
                    0.0,
                    0.0,
                    1.0
                ],
                "metallicFactor": 0.0
            },
            "emissiveFactor": [
                0.0,
                0.0,
                0.0
            ],
            "name": "_2_-_Default"
        },
        {
            "pbrMetallicRoughness": {
                "baseColorFactor": [
                    0.0,
                    0.24313730001449586,
                    0.5882353186607361,
                    1.0
                ],
                "metallicFactor": 0.0
            },
            "emissiveFactor": [
                0.0,
                0.0,
                0.0
            ],
            "name": "_7_-_Default"
        },
        {
            "pbrMetallicRoughness": {
                "baseColorFactor": [
                    0.0,
                    0.24313730001449586,
                    0.5882353186607361,
                    1.0
                ],
                "metallicFactor": 0.0
            },
            "emissiveFactor": [
                0.0,
                0.0,
                0.0
            ],
            "name": "_7_-_Default"
        }
    ],
    "bufferViews": [
        {
            "buffer": 0,
            "byteOffset": 12840,
            "byteLength": 4848,
            "target": 34963
        },
        {
            "buffer": 0,
            "byteOffset": 0,
            "byteLength": 12840,
            "byteStride": 12,
            "target": 34962
        }
    ],
    "buffers": [
        {
            "byteLength": 17688,
            "uri": "data:application/octet-stream;base64,"
        }
    ]
}
