{
    "asset": {
        "generator": "COLLADA2GLTF",
        "version": "2.0"
    },
    "scenes": [
        {
            "nodes": [
                0
            ]
        }
    ],
    "scene": 0,
    "nodes": [
        {
            "children": [
                1
            ],
            "matrix": [
                1.0,
                0.0,
                0.0,
                0.0,
                0.0,
                0.0,
                -1.0,
                0.0,
                0.0,
                1.0,
                0.0,
                0.0,
                0.0,
                0.0,
                0.0,
                1.0
            ],
            "name": "Z_UP"
        },
        {
            "mesh": 0,
            "name": "QiangJi"
        }
    ],
    "meshes": [
        {
            "primitives": [
                {
                    "attributes": {
                        "NORMAL": 1,
                        "POSITION": 2,
                        "TEXCOORD_0": 3
                    },
                    "indices": 0,
                    "mode": 4,
                    "material": 0
                },
                {
                    "attributes": {
                        "NORMAL": 5,
                        "POSITION": 6,
                        "TEXCOORD_0": 7
                    },
                    "indices": 4,
                    "mode": 4,
                    "material": 1
                }
            ],
            "name": "QiangJi"
        }
    ],
    "accessors": [
        {
            "bufferView": 0,
            "byteOffset": 0,
            "componentType": 5123,
            "count": 2118,
            "max": [
                805
            ],
            "min": [
                0
            ],
            "type": "SCALAR"
        },
        {
            "bufferView": 1,
            "byteOffset": 0,
            "componentType": 5126,
            "count": 806,
            "max": [
                1.0,
                1.0,
                1.0
            ],
            "min": [
                -1.0,
                -1.0,
                -1.0
            ],
            "type": "VEC3"
        },
        {
            "bufferView": 1,
            "byteOffset": 9672,
            "componentType": 5126,
            "count": 806,
            "max": [
                0.10629259794950484,
                0.014269019477069378,
                0.08469518274068833
            ],
            "min": [
                -0.10512380301952362,
                -0.5020186305046082,
                -0.0666009783744812
            ],
            "type": "VEC3"
        },
        {
            "bufferView": 2,
            "byteOffset": 0,
            "componentType": 5126,
            "count": 806,
            "max": [
                0.9828317165374756,
                0.9990000128746032
            ],
            "min": [
                0.0010000000474974514,
                0.013010382652282717
            ],
            "type": "VEC2"
        },
        {
            "bufferView": 0,
            "byteOffset": 4236,
            "componentType": 5123,
            "count": 72,
            "max": [
                25
            ],
            "min": [
                0
            ],
            "type": "SCALAR"
        },
        {
            "bufferView": 1,
            "byteOffset": 19344,
            "componentType": 5126,
            "count": 26,
            "max": [
                0.7230439782142639,
                -0.6565921306610107,
                0.7229217290878296
            ],
            "min": [
                -0.7205899357795715,
                -0.7014703154563904,
                -0.7224261164665222
            ],
            "type": "VEC3"
        },
        {
            "bufferView": 1,
            "byteOffset": 19656,
            "componentType": 5126,
            "count": 26,
            "max": [
                0.09388075768947602,
                -0.4875247180461884,
                0.06277643889188767
            ],
            "min": [
                -0.09262991696596146,
                -0.48845550417900088,
                -0.05959843099117279
            ],
            "type": "VEC3"
        },
        {
            "bufferView": 2,
            "byteOffset": 6448,
            "componentType": 5126,
            "count": 26,
            "max": [
                0.9934828281402588,
                0.6626223921775818
            ],
            "min": [
                0.01348274014890194,
                0.16490459442138673
            ],
            "type": "VEC2"
        }
    ],
    "materials": [
        {
            "pbrMetallicRoughness": {
                "baseColorTexture": {
                    "index": 0
                },
                "metallicFactor": 0.0
            },
            "emissiveFactor": [
                0.0,
                0.0,
                0.0
            ],
            "occlusionTexture": {
                "index": 0
            },
            "name": "_2_-_Default"
        },
        {
            "pbrMetallicRoughness": {
                "baseColorTexture": {
                    "index": 1
                },
                "metallicFactor": 0.0
            },
            "emissiveFactor": [
                0.0,
                0.0,
                0.0
            ],
            "occlusionTexture": {
                "index": 1
            },
            "name": "_7_-_Default"
        }
    ],
    "textures": [
        {
            "sampler": 0,
            "source": 0
        },
        {
            "sampler": 0,
            "source": 1
        }
    ],
    "images": [
        {
            "uri": "data:image/jpeg;base64,"
        },
        {
            "uri": "data:image/jpeg;base64,"
        }
    ],
    "samplers": [
        {
            "magFilter": 9729,
            "minFilter": 9986,
            "wrapS": 10497,
            "wrapT": 10497
        }
    ],
    "bufferViews": [
        {
            "buffer": 0,
            "byteOffset": 26624,
            "byteLength": 4380,
            "target": 34963
        },
        {
            "buffer": 0,
            "byteOffset": 0,
            "byteLength": 19968,
            "byteStride": 12,
            "target": 34962
        },
        {
            "buffer": 0,
            "byteOffset": 19968,
            "byteLength": 6656,
            "byteStride": 8,
            "target": 34962
        }
    ],
    "buffers": [
        {
            "byteLength": 31004,
            "uri": "data:application/octet-stream;base64,"
        }
    ]
}
